<svg width="24" height="24" viewBox="0 0 24 24" fill="none" xmlns="http://www.w3.org/2000/svg">
<g clip-path="url(#clip0_549_971)">
<path d="M22.8 24H1.2C0.52 24 0 23.4817 0 22.804V7.41525C0 6.73751 0.52 6.21924 1.2 6.21924H22.8C23.48 6.21924 24 6.73751 24 7.41525V22.8438C24 23.4817 23.48 24 22.8 24ZM2.4 21.6079H21.6V8.61126H2.4V21.6079Z" fill="white"/>
<path d="M22.8 24C22.12 24 21.6 23.4818 21.6 22.804V3.58807H2.4V22.804C2.4 23.4818 1.88 24 1.2 24C0.52 24 0 23.4818 0 22.804V2.39206C0 1.71432 0.52 1.19604 1.2 1.19604H22.8C23.48 1.19604 24 1.71432 24 2.39206V22.804C24 23.4818 23.48 24 22.8 24Z" fill="white"/>
<path d="M17.8 5.22259C17.2 5.22259 16.72 4.74419 16.72 4.14618V1.07641C16.72 0.478405 17.2 0 17.8 0C18.4 0 18.88 0.478405 18.88 1.07641V4.18605C18.84 4.74419 18.4 5.22259 17.8 5.22259Z" fill="white"/>
<path d="M11.9999 5.22259C11.3999 5.22259 10.9199 4.74419 10.9199 4.14618V1.07641C10.9599 0.478405 11.4399 0 11.9999 0C12.5599 0 13.0799 0.478405 13.0799 1.07641V4.18605C13.0799 4.74419 12.5999 5.22259 11.9999 5.22259Z" fill="white"/>
<path d="M6.24003 5.22259C5.64003 5.22259 5.16003 4.74419 5.16003 4.14618V1.07641C5.16003 0.478405 5.64003 0 6.24003 0C6.84003 0 7.32003 0.478405 7.32003 1.07641V4.18605C7.28003 4.74419 6.80003 5.22259 6.24003 5.22259Z" fill="white"/>
</g>
<defs>
<clipPath id="clip0_549_971">
<rect width="24" height="24" fill="white"/>
</clipPath>
</defs>
</svg>
