<svg width="26" height="27" viewBox="0 0 26 27" fill="none" xmlns="http://www.w3.org/2000/svg">
<path d="M24.7 26.5H1.3C0.563333 26.5 0 25.9385 0 25.2043V8.53323C0 7.79901 0.563333 7.23755 1.3 7.23755H24.7C25.4367 7.23755 26 7.79901 26 8.53323V25.2475C26 25.9385 25.4367 26.5 24.7 26.5ZM2.6 23.9086H23.4V9.82891H2.6V23.9086Z" fill="#0085CA"/>
<path d="M24.7 26.5C23.9633 26.5 23.4 25.9385 23.4 25.2043V4.38702H2.6V25.2043C2.6 25.9385 2.03667 26.5 1.3 26.5C0.563333 26.5 0 25.9385 0 25.2043V3.09134C0 2.35712 0.563333 1.79565 1.3 1.79565H24.7C25.4367 1.79565 26 2.35712 26 3.09134V25.2043C26 25.9385 25.4367 26.5 24.7 26.5Z" fill="#0085CA"/>
<path d="M19.2833 6.15781C18.6333 6.15781 18.1133 5.63953 18.1133 4.99169V1.66611C18.1133 1.01827 18.6333 0.5 19.2833 0.5C19.9333 0.5 20.4533 1.01827 20.4533 1.66611V5.03488C20.41 5.63953 19.9333 6.15781 19.2833 6.15781Z" fill="#0085CA"/>
<path d="M13.0001 6.15781C12.3501 6.15781 11.8301 5.63953 11.8301 4.99169V1.66611C11.8734 1.01827 12.3934 0.5 13.0001 0.5C13.6067 0.5 14.1701 1.01827 14.1701 1.66611V5.03488C14.1701 5.63953 13.6501 6.15781 13.0001 6.15781Z" fill="#0085CA"/>
<path d="M6.75984 6.15781C6.10984 6.15781 5.58984 5.63953 5.58984 4.99169V1.66611C5.58984 1.01827 6.10984 0.5 6.75984 0.5C7.40984 0.5 7.92984 1.01827 7.92984 1.66611V5.03488C7.88651 5.63953 7.36651 6.15781 6.75984 6.15781Z" fill="#0085CA"/>
</svg>
