<svg width="24" height="25" viewBox="0 0 24 25" fill="none" xmlns="http://www.w3.org/2000/svg">
<g clip-path="url(#clip0_549_985)">
<path d="M12 24.5C5.37793 24.5 0 19.1221 0 12.5C0 5.87793 5.37793 0.5 12 0.5C18.6221 0.5 24 5.87793 24 12.5C24 19.1221 18.6221 24.5 12 24.5ZM12 2.90803C6.70234 2.90803 2.40803 7.20234 2.40803 12.5C2.40803 17.7977 6.70234 22.092 12 22.092C17.2977 22.092 21.592 17.7977 21.592 12.5C21.592 7.20234 17.2977 2.90803 12 2.90803Z" fill="white"/>
<path d="M17.097 17.1957C16.8562 17.1957 16.6154 17.1154 16.4148 16.995L11.3178 13.5034C10.9967 13.2626 10.796 12.9014 10.796 12.5001V5.19571C10.796 4.51344 11.3178 3.9917 12 3.9917C12.6823 3.9917 13.204 4.51344 13.204 5.19571V11.8579L17.7793 14.9884C18.3412 15.3496 18.4616 16.1121 18.1004 16.674C17.8596 17.0352 17.4984 17.1957 17.097 17.1957Z" fill="white"/>
</g>
<defs>
<clipPath id="clip0_549_985">
<rect width="24" height="24" fill="white" transform="translate(0 0.5)"/>
</clipPath>
</defs>
</svg>
