<svg width="35" height="40" viewBox="0 0 35 40" fill="none" xmlns="http://www.w3.org/2000/svg">
<path d="M15.082 40H8C6.88525 40 6.03279 39.1319 6.03279 37.9967V24.4407H1.96721C0.852459 24.4407 0 23.5726 0 22.4374V15.626C0 14.4908 0.852459 13.6227 1.96721 13.6227H6.03279V12.3539C6.03279 5.54257 11.4754 0 18.1639 0H26.0328C27.1475 0 28 0.868113 28 2.00334V9.21536C28 10.3506 27.1475 11.2187 26.0328 11.2187H19.2787C18.0328 11.2187 16.9836 12.2871 16.9836 13.5559V13.6895H21.5082C22.6229 13.6895 23.4754 14.5576 23.4754 15.6928V22.5042C23.4754 23.6394 22.6229 24.5075 21.5082 24.5075H17.0492V38.0634C17.0492 39.1319 16.1311 40 15.082 40ZM9.96721 35.9933H13.1148V22.4374C13.1148 21.3022 13.9672 20.4341 15.082 20.4341H19.6066V17.6294H15.082C13.9672 17.6294 13.1148 16.7613 13.1148 15.626V13.4891C13.1148 10.0167 15.8689 7.14524 19.3443 7.14524H24.0656V4.00668H18.1639C13.6393 4.00668 9.96721 7.74624 9.96721 12.3539V15.626C9.96721 16.7613 9.11475 17.6294 8 17.6294H3.93443V20.4341H8C9.11475 20.4341 9.96721 21.3022 9.96721 22.4374V35.9933Z" fill="#F8F8FF"/>
</svg>
