<svg width="24" height="25" viewBox="0 0 24 25" fill="none" xmlns="http://www.w3.org/2000/svg">
<path d="M14.3346 24.5C14.1011 24.5 13.8677 24.4531 13.6342 24.3125L8.91826 21.6406C8.49803 21.4062 8.21788 20.9375 8.21788 20.4219V12.9219L0.280133 2.79688C-0.0467154 2.375 -0.093408 1.8125 0.140055 1.29688C0.373518 0.828125 0.887137 0.5 1.40076 0.5H22.5992C23.1128 0.5 23.6264 0.828125 23.8599 1.29688C24.0934 1.76562 24.0467 2.375 23.7198 2.79688L15.7821 12.9688V23.0938C15.7821 23.6094 15.5019 24.0781 15.0817 24.3125C14.8482 24.4531 14.6148 24.5 14.3346 24.5ZM11.0661 19.625L12.9805 20.7031V12.4531C12.9805 12.125 13.0739 11.8438 13.2607 11.5625L19.7043 3.3125H4.2957L10.7393 11.6094C10.926 11.8438 11.0194 12.1719 11.0194 12.5V19.625H11.0661Z" fill="#414141"/>
</svg>
