<svg width="40" height="40" viewBox="0 0 40 40" fill="none" xmlns="http://www.w3.org/2000/svg">
<path d="M19.9999 30.4161C14.2665 30.4161 9.5332 25.7572 9.5332 19.9668C9.5332 14.1765 14.1999 9.51758 19.9999 9.51758C25.7999 9.51758 30.4665 14.1765 30.4665 19.9668C30.4665 25.7572 25.7999 30.4161 19.9999 30.4161ZM19.9999 13.5109C16.4665 13.5109 13.5332 16.3728 13.5332 19.9668C13.5332 23.5608 16.3999 26.4227 19.9999 26.4227C23.5999 26.4227 26.4665 23.5608 26.4665 19.9668C26.4665 16.3728 23.5332 13.5109 19.9999 13.5109Z" fill="white" fill-opacity="0.9"/>
<path d="M30.9333 40H9.13333C4.06667 40 0 35.8735 0 30.8819V9.11814C0 4.0599 4.06667 0 9.13333 0H30.9333C35.9333 0 40 4.0599 40 9.11814V30.8819C40 35.8735 35.9333 40 30.9333 40ZM9.13333 3.99334C6.26667 3.99334 4 6.25624 4 9.11814V30.8819C4 33.6772 6.26667 36.0067 9.13333 36.0067H30.9333C33.7333 36.0067 36.0667 33.7438 36.0667 30.8819V9.11814C36 6.25624 33.7333 3.99334 30.9333 3.99334H9.13333Z" fill="white" fill-opacity="0.9"/>
</svg>
