<svg width="16" height="15" viewBox="0 0 16 15" fill="none" xmlns="http://www.w3.org/2000/svg">
<path d="M8 15C7.69804 15 7.39608 14.8495 7.25882 14.5987C7.06667 14.2224 7.20392 13.7709 7.61569 13.5953C13.5451 10.8361 13.3529 6.94816 13.3529 6.92308C13.3529 6.89799 13.3529 6.89799 13.3529 6.87291C13.3529 3.91304 10.9647 1.50502 8 1.50502C5.03529 1.50502 2.64706 3.91304 2.64706 6.87291C2.64706 7.29933 2.2902 7.62542 1.82353 7.62542C1.35686 7.62542 1 7.29933 1 6.87291C1 3.08528 4.12941 0 8 0C11.8431 0 15 3.0602 15 6.84783C15.0275 7.27425 15.0549 11.8395 8.35686 14.9248C8.24706 14.9749 8.13725 15 8 15Z" fill="white" fill-opacity="0.9"/>
<path d="M7.99997 15C7.86271 15 7.75291 14.9749 7.64311 14.9248C0.945066 11.8395 0.972517 7.27425 0.999968 6.84783C0.999968 3.0602 4.15683 0 7.99997 0C11.8706 0 15 3.08528 15 6.87291C15 7.29933 14.6431 7.62542 14.1764 7.62542C13.7098 7.62542 13.3529 7.29933 13.3529 6.87291C13.3529 3.91304 10.9647 1.50502 7.99997 1.50502C5.03526 1.50502 2.64703 3.91304 2.64703 6.87291C2.64703 6.89799 2.64703 6.89799 2.64703 6.92308C2.64703 7.07358 2.50977 10.8863 8.38428 13.5953C8.79605 13.7709 8.96075 14.2475 8.74115 14.5987C8.60389 14.8495 8.30193 15 7.99997 15Z" fill="white" fill-opacity="0.9"/>
<path d="M7.99996 9.15557C6.21564 9.15557 4.76074 7.82614 4.76074 6.19571C4.76074 4.56527 6.21564 3.23584 7.99996 3.23584C9.78427 3.23584 11.2392 4.56527 11.2392 6.19571C11.2392 7.82614 9.78427 9.15557 7.99996 9.15557ZM7.99996 4.74086C7.12153 4.74086 6.4078 5.39303 6.4078 6.19571C6.4078 6.99838 7.12153 7.65056 7.99996 7.65056C8.87839 7.65056 9.59211 6.99838 9.59211 6.19571C9.59211 5.39303 8.87839 4.74086 7.99996 4.74086Z" fill="white" fill-opacity="0.9"/>
</svg>
