<svg width="22" height="25" viewBox="0 0 22 25" fill="none" xmlns="http://www.w3.org/2000/svg">
<path d="M10.5 24.5C10.0471 24.5 9.59412 24.2592 9.38824 23.8579C9.1 23.2559 9.30588 22.5334 9.92353 22.2525C18.8176 17.8378 18.5294 11.6171 18.5294 11.5769C18.5294 11.5368 18.5294 11.5368 18.5294 11.4967C18.5294 6.76087 14.9471 2.90803 10.5 2.90803C6.05294 2.90803 2.47059 6.76087 2.47059 11.4967C2.47059 12.1789 1.93529 12.7007 1.23529 12.7007C0.535294 12.7007 0 12.1789 0 11.4967C0 5.43645 4.69412 0.5 10.5 0.5C16.2647 0.5 21 5.39632 21 11.4565C21.0412 12.1388 21.0824 19.4431 11.0353 24.3796C10.8706 24.4599 10.7059 24.5 10.5 24.5Z" fill="white"/>
<path d="M10.5 24.5C10.2941 24.5 10.1294 24.4599 9.96472 24.3796C-0.0823402 19.4431 -0.0411642 12.1388 1.23084e-05 11.4565C1.23084e-05 5.39632 4.73531 0.5 10.5 0.5C16.3059 0.5 21 5.43645 21 11.4967C21 12.1789 20.4647 12.7007 19.7647 12.7007C19.0647 12.7007 18.5294 12.1789 18.5294 11.4967C18.5294 6.76087 14.9471 2.90803 10.5 2.90803C6.05295 2.90803 2.4706 6.76087 2.4706 11.4967C2.4706 11.5368 2.4706 11.5368 2.4706 11.5769C2.4706 11.8177 2.26472 17.9181 11.0765 22.2525C11.6941 22.5334 11.9412 23.296 11.6118 23.8579C11.4059 24.2592 10.953 24.5 10.5 24.5Z" fill="white"/>
<path d="M10.5001 15.1488C7.82359 15.1488 5.64124 13.0217 5.64124 10.413C5.64124 7.80434 7.82359 5.67725 10.5001 5.67725C13.1765 5.67725 15.3589 7.80434 15.3589 10.413C15.3589 13.0217 13.1765 15.1488 10.5001 15.1488ZM10.5001 8.08527C9.18241 8.08527 8.11182 9.12875 8.11182 10.413C8.11182 11.6973 9.18241 12.7408 10.5001 12.7408C11.8177 12.7408 12.8883 11.6973 12.8883 10.413C12.8883 9.12875 11.8177 8.08527 10.5001 8.08527Z" fill="white"/>
</svg>
