<svg width="16" height="15" viewBox="0 0 16 15" fill="none" xmlns="http://www.w3.org/2000/svg">
<g clip-path="url(#clip0_220_1298)">
<path d="M13.8133 15C6.21333 15 0 9.18469 0 2.04659C0 0.923461 0.986667 0 2.18667 0H4.90667C5.78667 0 6.48 0.648919 6.48 1.47255C6.48 2.54576 6.72 3.56905 7.2 4.54243C7.33333 4.81697 7.28 5.16639 7.04 5.39102L5.86667 6.46423C5.76 6.56406 5.70667 6.71381 5.70667 6.86356C5.70667 7.01331 5.76 7.1381 5.86667 7.2629L8.24 9.48419C8.45333 9.68386 8.85333 9.68386 9.06667 9.48419L10.2133 8.41098C10.4533 8.18636 10.8 8.13644 11.12 8.26123C12.16 8.71048 13.28 8.93511 14.4533 8.93511C15.3067 8.93511 16.0267 9.58403 16.0267 10.4077V12.9534C16 14.0765 15.04 15 13.8133 15ZM2.18667 1.4975C1.86667 1.4975 1.6 1.74709 1.6 2.04659C1.6 8.36106 7.09333 13.5025 13.8133 13.5025C14.1333 13.5025 14.4 13.2529 14.4 12.9534V10.4326C13.2 10.4326 12.0533 10.2329 10.96 9.80865L10.2133 10.5075C9.81333 10.8819 9.25333 11.1065 8.66667 11.1065C8.08 11.1065 7.54667 10.8819 7.12 10.5075L4.74667 8.28619C4.34667 7.91181 4.10667 7.38769 4.10667 6.8386C4.10667 6.28952 4.34667 5.79035 4.74667 5.39102L5.52 4.66722C5.09333 3.64393 4.88 2.57072 4.88 1.47255H2.18667V1.4975Z" fill="white" fill-opacity="0.9"/>
</g>
<defs>
<clipPath id="clip0_220_1298">
<rect width="16" height="15" fill="white"/>
</clipPath>
</defs>
</svg>
