<svg width="26" height="27" viewBox="0 0 26 27" fill="none" xmlns="http://www.w3.org/2000/svg">
<path d="M11.7433 23.9825C5.24333 23.9825 0 18.7304 0 12.2629C0 5.79549 5.24333 0.5 11.7433 0.5C18.2433 0.5 23.4867 5.75209 23.4867 12.2629C23.4867 14.3464 22.9233 16.3865 21.9267 18.1661C21.58 18.7738 20.7567 18.9908 20.15 18.6436C19.5433 18.2963 19.3267 17.4716 19.6733 16.8639C20.4967 15.475 20.8867 13.9124 20.8867 12.2629C20.8433 7.18447 16.77 3.10434 11.7433 3.10434C6.71667 3.10434 2.6 7.18447 2.6 12.2629C2.6 17.3414 6.67333 21.4215 11.7433 21.4215C13.3467 21.4215 14.95 20.9875 16.3367 20.2062C16.9433 19.8589 17.7667 20.076 18.1133 20.6836C18.46 21.2913 18.2433 22.116 17.6367 22.4633C15.8167 23.4616 13.78 23.9825 11.7433 23.9825Z" fill="#F8F8FF"/>
<path d="M11.7433 23.9825C5.24333 23.9825 0 18.7304 0 12.2629C0 10.1795 0.563333 8.1394 1.56 6.35977C1.90667 5.75209 2.73 5.53506 3.33667 5.8823C3.94333 6.22955 4.16 7.05426 3.81333 7.66194C3.03333 9.05092 2.6 10.6569 2.6 12.2629C2.6 17.298 6.67333 21.4215 11.7433 21.4215C16.8133 21.4215 20.8867 17.3414 20.8867 12.2629C20.8867 7.18447 16.77 3.10434 11.7433 3.10434C10.14 3.10434 8.53667 3.5384 7.15 4.3197C6.54333 4.66694 5.72 4.44992 5.37333 3.84224C5.02667 3.23456 5.24333 2.40985 5.85 2.0626C7.62667 1.06427 9.66333 0.5 11.7433 0.5C18.2 0.5 23.4433 5.75209 23.4433 12.2629C23.4433 18.7738 18.2 23.9825 11.7433 23.9825Z" fill="#F8F8FF"/>
<path d="M24.6999 26.4999C24.3533 26.4999 24.0499 26.3697 23.7899 26.1093L18.2866 20.5967C17.7666 20.0759 17.7666 19.2512 18.2866 18.7737C18.8066 18.2528 19.6299 18.2528 20.1066 18.7737L25.6099 24.2862C26.1299 24.8071 26.1299 25.6318 25.6099 26.1093C25.3499 26.3697 25.0033 26.4999 24.6999 26.4999Z" fill="#F8F8FF"/>
</svg>
