<svg width="40" height="40" viewBox="0 0 40 40" fill="none" xmlns="http://www.w3.org/2000/svg">
<g clip-path="url(#clip0_220_1326)">
<path d="M19.8 39.9998C19 39.9998 18.3333 39.5332 18 38.8665L12.4667 27.5332L1.13333 21.9998C0.466667 21.6665 0 20.9998 0 20.1999C0 19.4665 0.4 18.7332 1.06667 18.3999L37.0667 0.199854C37.8667 -0.200146 38.7333 -0.0668131 39.4 0.599853C40 1.19985 40.1333 2.13319 39.8 2.93319L21.6 38.9332C21.2667 39.5998 20.5333 39.9998 19.8 39.9998ZM6.46667 20.1332L14.8 24.1998C15.2 24.3998 15.5333 24.7332 15.7333 25.1332L19.8 33.4665L33.4667 6.53319L6.46667 20.1332Z" fill="white"/>
<path d="M13.9334 28.0666C13.4 28.0666 12.9333 27.8666 12.5333 27.4666C11.7333 26.6666 11.7333 25.3999 12.5333 24.6666L33.3334 3.8666C34.1334 3.0666 35.4 3.0666 36.1334 3.8666C36.9334 4.6666 36.9334 5.93327 36.1334 6.6666L15.3334 27.4666C14.9334 27.8666 14.4667 28.0666 13.9334 28.0666Z" fill="white"/>
</g>
<defs>
<clipPath id="clip0_220_1326">
<rect width="40" height="40" fill="white"/>
</clipPath>
</defs>
</svg>
